<?xml version="1.0" encoding="UTF-8" standalone="no"?>
<!DOCTYPE svg PUBLIC "-//W3C//DTD SVG 1.1//EN"
 "http://www.w3.org/Graphics/SVG/1.1/DTD/svg11.dtd">
<!-- Generated by graphviz version 14.1.4 (20260321.0153)
 -->
<!-- Title: kernel/include/drivers/framebuffer.h Pages: 1 -->
<svg width="266pt" height="108pt"
 viewBox="0.00 0.00 266.00 108.00" xmlns="http://www.w3.org/2000/svg" xmlns:xlink="http://www.w3.org/1999/xlink">
<g id="graph0" class="graph" transform="scale(1 1) rotate(0) translate(4 104)">
<title>kernel/include/drivers/framebuffer.h</title>
<!-- Node1 -->
<g id="Node000001" class="node">
<title>Node1</title>
<g id="a_Node000001"><a xlink:title=" ">
<polygon fill="#999999" stroke="#666666" points="186.62,-100 78.38,-100 78.38,-68 186.62,-68 186.62,-100"/>
<text xml:space="preserve" text-anchor="start" x="86.38" y="-86.5" font-family="Helvetica,sans-Serif" font-size="10.00">kernel/include/drivers</text>
<text xml:space="preserve" text-anchor="middle" x="132.5" y="-74.5" font-family="Helvetica,sans-Serif" font-size="10.00">/framebuffer.h</text>
</a>
</g>
</g>
<!-- Node2 -->
<g id="Node000002" class="node">
<title>Node2</title>
<g id="a_Node000002"><a xlink:href="framebufferbackend_8h.html" target="_top" xlink:title=" ">
<polygon fill="white" stroke="#666666" points="127,-32 0,-32 0,0 127,0 127,-32"/>
<text xml:space="preserve" text-anchor="start" x="8" y="-18.5" font-family="Helvetica,sans-Serif" font-size="10.00">kernel/include/kernel</text>
<text xml:space="preserve" text-anchor="middle" x="63.5" y="-6.5" font-family="Helvetica,sans-Serif" font-size="10.00">/tty/framebufferbackend.h</text>
</a>
</g>
</g>
<!-- Node1&#45;&gt;Node2 -->
<g id="edge1_Node000001_Node000002" class="edge">
<title>Node1&#45;&gt;Node2</title>
<g id="a_edge1_Node000001_Node000002"><a xlink:title=" ">
<path fill="none" stroke="#63b8ff" d="M108.44,-59.99C98.83,-50.79 88.02,-40.46 79.42,-32.22"/>
<polygon fill="#63b8ff" stroke="#63b8ff" points="105.76,-62.26 115.4,-66.65 110.6,-57.2 105.76,-62.26"/>
</a>
</g>
</g>
<!-- Node3 -->
<g id="Node000003" class="node">
<title>Node3</title>
<g id="a_Node000003"><a xlink:href="framebufferbackend_8c.html" target="_top" xlink:title=" ">
<polygon fill="white" stroke="#666666" points="257.88,-32 145.12,-32 145.12,0 257.88,0 257.88,-32"/>
<text xml:space="preserve" text-anchor="start" x="153.12" y="-18.5" font-family="Helvetica,sans-Serif" font-size="10.00">kernel/src/kernel/tty</text>
<text xml:space="preserve" text-anchor="middle" x="201.5" y="-6.5" font-family="Helvetica,sans-Serif" font-size="10.00">/framebufferbackend.c</text>
</a>
</g>
</g>
<!-- Node1&#45;&gt;Node3 -->
<g id="edge2_Node000001_Node000003" class="edge">
<title>Node1&#45;&gt;Node3</title>
<g id="a_edge2_Node000001_Node000003"><a xlink:title=" ">
<path fill="none" stroke="#63b8ff" d="M156.56,-59.99C166.17,-50.79 176.98,-40.46 185.58,-32.22"/>
<polygon fill="#63b8ff" stroke="#63b8ff" points="154.4,-57.2 149.6,-66.65 159.24,-62.26 154.4,-57.2"/>
</a>
</g>
</g>
</g>
</svg>
