<?xml version="1.0" encoding="UTF-8" standalone="no"?>
<!DOCTYPE svg PUBLIC "-//W3C//DTD SVG 1.1//EN"
 "http://www.w3.org/Graphics/SVG/1.1/DTD/svg11.dtd">
<!-- Generated by graphviz version 14.1.4 (20260321.0153)
 -->
<!-- Title: kernel/src/kernel/scheduler/scheduler.c Pages: 1 -->
<svg width="396pt" height="264pt"
 viewBox="0.00 0.00 396.00 264.00" xmlns="http://www.w3.org/2000/svg" xmlns:xlink="http://www.w3.org/1999/xlink">
<g id="graph0" class="graph" transform="scale(1 1) rotate(0) translate(4 260)">
<title>kernel/src/kernel/scheduler/scheduler.c</title>
<!-- Node1 -->
<g id="Node000001" class="node">
<title>Node1</title>
<g id="a_Node000001"><a xlink:title=" ">
<polygon fill="#999999" stroke="#666666" points="272.75,-256 139.75,-256 139.75,-224 272.75,-224 272.75,-256"/>
<text xml:space="preserve" text-anchor="start" x="147.75" y="-242.5" font-family="Helvetica,sans-Serif" font-size="10.00">kernel/src/kernel/scheduler</text>
<text xml:space="preserve" text-anchor="middle" x="206.25" y="-230.5" font-family="Helvetica,sans-Serif" font-size="10.00">/scheduler.c</text>
</a>
</g>
</g>
<!-- Node2 -->
<g id="Node000002" class="node">
<title>Node2</title>
<g id="a_Node000002"><a xlink:href="scheduler_8h.html" target="_top" xlink:title=" ">
<polygon fill="white" stroke="#666666" points="140.5,-188 0,-188 0,-168 140.5,-168 140.5,-188"/>
<text xml:space="preserve" text-anchor="middle" x="70.25" y="-174.5" font-family="Helvetica,sans-Serif" font-size="10.00">kernel/scheduler/scheduler.h</text>
</a>
</g>
</g>
<!-- Node1&#45;&gt;Node2 -->
<g id="edge1_Node000001_Node000002" class="edge">
<title>Node1&#45;&gt;Node2</title>
<g id="a_edge1_Node000001_Node000002"><a xlink:title=" ">
<path fill="none" stroke="#63b8ff" d="M171.23,-223.55C149.88,-214.13 122.81,-202.19 102.07,-193.04"/>
<polygon fill="#63b8ff" stroke="#63b8ff" points="103.52,-189.85 92.96,-189.02 100.7,-196.26 103.52,-189.85"/>
</a>
</g>
</g>
<!-- Node3 -->
<g id="Node000003" class="node">
<title>Node3</title>
<g id="a_Node000003"><a xlink:href="thread_8h_source.html" target="_top" xlink:title=" ">
<polygon fill="white" stroke="#666666" points="178.5,-132 68,-132 68,-112 178.5,-112 178.5,-132"/>
<text xml:space="preserve" text-anchor="middle" x="123.25" y="-118.5" font-family="Helvetica,sans-Serif" font-size="10.00">kernel/thread/thread.h</text>
</a>
</g>
</g>
<!-- Node1&#45;&gt;Node3 -->
<g id="edge6_Node000001_Node000003" class="edge">
<title>Node1&#45;&gt;Node3</title>
<g id="a_edge6_Node000001_Node000003"><a xlink:title=" ">
<path fill="none" stroke="#63b8ff" d="M195.4,-223.84C180.31,-202.75 153,-164.58 136.66,-141.74"/>
<polygon fill="#63b8ff" stroke="#63b8ff" points="139.55,-139.76 130.88,-133.67 133.86,-143.84 139.55,-139.76"/>
</a>
</g>
</g>
<!-- Node4 -->
<g id="Node000004" class="node">
<title>Node4</title>
<g id="a_Node000004"><a xlink:href="stddef_8h.html" target="_top" xlink:title="Common definitions for C programs.">
<polygon fill="white" stroke="#666666" points="215.88,-76 164.62,-76 164.62,-56 215.88,-56 215.88,-76"/>
<text xml:space="preserve" text-anchor="middle" x="190.25" y="-62.5" font-family="Helvetica,sans-Serif" font-size="10.00">stddef.h</text>
</a>
</g>
</g>
<!-- Node1&#45;&gt;Node4 -->
<g id="edge7_Node000001_Node000004" class="edge">
<title>Node1&#45;&gt;Node4</title>
<g id="a_edge7_Node000001_Node000004"><a xlink:title=" ">
<path fill="none" stroke="#63b8ff" d="M204.83,-223.74C201.94,-192.69 195.38,-122.18 192.14,-87.31"/>
<polygon fill="#63b8ff" stroke="#63b8ff" points="195.66,-87.35 191.25,-77.72 188.69,-88 195.66,-87.35"/>
</a>
</g>
</g>
<!-- Node5 -->
<g id="Node000005" class="node">
<title>Node5</title>
<g id="a_Node000005"><a xlink:href="stdint_8h.html" target="_top" xlink:title="Fixed&#45;width integer types.">
<polygon fill="white" stroke="#666666" points="241.38,-20 193.12,-20 193.12,0 241.38,0 241.38,-20"/>
<text xml:space="preserve" text-anchor="middle" x="217.25" y="-6.5" font-family="Helvetica,sans-Serif" font-size="10.00">stdint.h</text>
</a>
</g>
</g>
<!-- Node1&#45;&gt;Node5 -->
<g id="edge8_Node000001_Node000005" class="edge">
<title>Node1&#45;&gt;Node5</title>
<g id="a_edge8_Node000001_Node000005"><a xlink:title=" ">
<path fill="none" stroke="#63b8ff" d="M209.8,-223.83C216.69,-192.5 230.75,-118.36 225.25,-56 224.54,-47.9 223.11,-39.08 221.66,-31.41"/>
<polygon fill="#63b8ff" stroke="#63b8ff" points="225.11,-30.83 219.69,-21.73 218.26,-32.22 225.11,-30.83"/>
</a>
</g>
</g>
<!-- Node6 -->
<g id="Node000006" class="node">
<title>Node6</title>
<g id="a_Node000006"><a xlink:href="tss_8h_source.html" target="_top" xlink:title=" ">
<polygon fill="white" stroke="#666666" points="388.12,-132 272.38,-132 272.38,-112 388.12,-112 388.12,-132"/>
<text xml:space="preserve" text-anchor="middle" x="330.25" y="-118.5" font-family="Helvetica,sans-Serif" font-size="10.00">arch/x86/i386/tss/tss.h</text>
</a>
</g>
</g>
<!-- Node1&#45;&gt;Node6 -->
<g id="edge9_Node000001_Node000006" class="edge">
<title>Node1&#45;&gt;Node6</title>
<g id="a_edge9_Node000001_Node000006"><a xlink:title=" ">
<path fill="none" stroke="#63b8ff" d="M222.72,-223.6C245.85,-201.96 287.83,-162.68 311.93,-140.14"/>
<polygon fill="#63b8ff" stroke="#63b8ff" points="314.19,-142.81 319.1,-133.43 309.41,-137.7 314.19,-142.81"/>
</a>
</g>
</g>
<!-- Node2&#45;&gt;Node3 -->
<g id="edge2_Node000002_Node000003" class="edge">
<title>Node2&#45;&gt;Node3</title>
<g id="a_edge2_Node000002_Node000003"><a xlink:title=" ">
<path fill="none" stroke="#63b8ff" d="M79.48,-167.59C86.85,-160.08 97.38,-149.35 106.27,-140.3"/>
<polygon fill="#63b8ff" stroke="#63b8ff" points="108.56,-142.97 113.06,-133.38 103.56,-138.06 108.56,-142.97"/>
</a>
</g>
</g>
<!-- Node3&#45;&gt;Node4 -->
<g id="edge3_Node000003_Node000004" class="edge">
<title>Node3&#45;&gt;Node4</title>
<g id="a_edge3_Node000003_Node000004"><a xlink:title=" ">
<path fill="none" stroke="#63b8ff" d="M134.92,-111.59C144.53,-103.85 158.38,-92.69 169.82,-83.47"/>
<polygon fill="#63b8ff" stroke="#63b8ff" points="171.95,-86.25 177.53,-77.25 167.55,-80.8 171.95,-86.25"/>
</a>
</g>
</g>
<!-- Node3&#45;&gt;Node5 -->
<g id="edge5_Node000003_Node000005" class="edge">
<title>Node3&#45;&gt;Node5</title>
<g id="a_edge5_Node000003_Node000005"><a xlink:title=" ">
<path fill="none" stroke="#63b8ff" d="M126.18,-111.79C130.77,-98.41 140.66,-73.31 155.25,-56 165.09,-44.32 178.58,-34.06 190.46,-26.3"/>
<polygon fill="#63b8ff" stroke="#63b8ff" points="192.03,-29.45 198.67,-21.2 188.33,-23.51 192.03,-29.45"/>
</a>
</g>
</g>
<!-- Node4&#45;&gt;Node5 -->
<g id="edge4_Node000004_Node000005" class="edge">
<title>Node4&#45;&gt;Node5</title>
<g id="a_edge4_Node000004_Node000005"><a xlink:title=" ">
<path fill="none" stroke="#63b8ff" d="M194.95,-55.59C198.4,-48.7 203.2,-39.1 207.46,-30.57"/>
<polygon fill="#63b8ff" stroke="#63b8ff" points="210.58,-32.16 211.92,-21.65 204.32,-29.03 210.58,-32.16"/>
</a>
</g>
</g>
<!-- Node6&#45;&gt;Node5 -->
<g id="edge10_Node000006_Node000005" class="edge">
<title>Node6&#45;&gt;Node5</title>
<g id="a_edge10_Node000006_Node000005"><a xlink:title=" ">
<path fill="none" stroke="#63b8ff" d="M320.62,-111.62C301.6,-93.11 259,-51.65 234.85,-28.13"/>
<polygon fill="#63b8ff" stroke="#63b8ff" points="237.55,-25.88 227.94,-21.41 232.67,-30.89 237.55,-25.88"/>
</a>
</g>
</g>
</g>
</svg>
