<?xml version="1.0" encoding="UTF-8" standalone="no"?>
<!DOCTYPE svg PUBLIC "-//W3C//DTD SVG 1.1//EN"
 "http://www.w3.org/Graphics/SVG/1.1/DTD/svg11.dtd">
<!-- Generated by graphviz version 14.1.4 (20260321.0153)
 -->
<!-- Title: libc/include/stddef.h Pages: 1 -->
<svg width="576pt" height="96pt"
 viewBox="0.00 0.00 576.00 96.00" xmlns="http://www.w3.org/2000/svg" xmlns:xlink="http://www.w3.org/1999/xlink">
<g id="graph0" class="graph" transform="scale(1 1) rotate(0) translate(4 92)">
<title>libc/include/stddef.h</title>
<!-- Node1 -->
<g id="Node000001" class="node">
<title>Node1</title>
<g id="a_Node000001"><a xlink:title="Common definitions for C programs.">
<polygon fill="#999999" stroke="#666666" points="385.75,-88 282.75,-88 282.75,-68 385.75,-68 385.75,-88"/>
<text xml:space="preserve" text-anchor="middle" x="334.25" y="-74.5" font-family="Helvetica,sans-Serif" font-size="10.00">libc/include/stddef.h</text>
</a>
</g>
</g>
<!-- Node2 -->
<g id="Node000002" class="node">
<title>Node2</title>
<g id="a_Node000002"><a xlink:href="physicalmemorymanager_8h_source.html" target="_top" xlink:title=" ">
<polygon fill="white" stroke="#666666" points="200.5,-32 0,-32 0,0 200.5,0 200.5,-32"/>
<text xml:space="preserve" text-anchor="start" x="8" y="-18.5" font-family="Helvetica,sans-Serif" font-size="10.00">kernel/include/arch</text>
<text xml:space="preserve" text-anchor="middle" x="100.25" y="-6.5" font-family="Helvetica,sans-Serif" font-size="10.00">/x86/i386/mmu/physicalmemorymanager.h</text>
</a>
</g>
</g>
<!-- Node1&#45;&gt;Node2 -->
<g id="edge1_Node000001_Node000002" class="edge">
<title>Node1&#45;&gt;Node2</title>
<g id="a_edge1_Node000001_Node000002"><a xlink:title=" ">
<path fill="none" stroke="#63b8ff" d="M286.61,-64.78C250.19,-55.45 199.75,-42.51 160.53,-32.46"/>
<polygon fill="#63b8ff" stroke="#63b8ff" points="285.41,-68.09 295.96,-67.18 287.15,-61.31 285.41,-68.09"/>
</a>
</g>
</g>
<!-- Node3 -->
<g id="Node000003" class="node">
<title>Node3</title>
<g id="a_Node000003"><a xlink:href="vga_8h_source.html" target="_top" xlink:title=" ">
<polygon fill="white" stroke="#666666" points="326.38,-32 218.12,-32 218.12,0 326.38,0 326.38,-32"/>
<text xml:space="preserve" text-anchor="start" x="226.12" y="-18.5" font-family="Helvetica,sans-Serif" font-size="10.00">kernel/include/drivers</text>
<text xml:space="preserve" text-anchor="middle" x="272.25" y="-6.5" font-family="Helvetica,sans-Serif" font-size="10.00">/vga.h</text>
</a>
</g>
</g>
<!-- Node1&#45;&gt;Node3 -->
<g id="edge2_Node000001_Node000003" class="edge">
<title>Node1&#45;&gt;Node3</title>
<g id="a_edge2_Node000001_Node000003"><a xlink:title=" ">
<path fill="none" stroke="#63b8ff" d="M316.32,-59.65C307.33,-50.95 296.54,-40.51 287.9,-32.14"/>
<polygon fill="#63b8ff" stroke="#63b8ff" points="313.85,-62.13 323.47,-66.57 318.72,-57.1 313.85,-62.13"/>
</a>
</g>
</g>
<!-- Node4 -->
<g id="Node000004" class="node">
<title>Node4</title>
<g id="a_Node000004"><a xlink:href="tty_8h_source.html" target="_top" xlink:title=" ">
<polygon fill="white" stroke="#666666" points="449.88,-32 344.62,-32 344.62,0 449.88,0 449.88,-32"/>
<text xml:space="preserve" text-anchor="start" x="352.62" y="-18.5" font-family="Helvetica,sans-Serif" font-size="10.00">kernel/include/kernel</text>
<text xml:space="preserve" text-anchor="middle" x="397.25" y="-6.5" font-family="Helvetica,sans-Serif" font-size="10.00">/tty/tty.h</text>
</a>
</g>
</g>
<!-- Node1&#45;&gt;Node4 -->
<g id="edge3_Node000001_Node000004" class="edge">
<title>Node1&#45;&gt;Node4</title>
<g id="a_edge3_Node000001_Node000004"><a xlink:title=" ">
<path fill="none" stroke="#63b8ff" d="M352.19,-59.92C361.38,-51.16 372.47,-40.6 381.35,-32.14"/>
<polygon fill="#63b8ff" stroke="#63b8ff" points="350.02,-57.15 345.19,-66.58 354.84,-62.22 350.02,-57.15"/>
</a>
</g>
</g>
<!-- Node5 -->
<g id="Node000005" class="node">
<title>Node5</title>
<g id="a_Node000005"><a xlink:href="string_8h_source.html" target="_top" xlink:title=" ">
<polygon fill="white" stroke="#666666" points="568.25,-26 468.25,-26 468.25,-6 568.25,-6 568.25,-26"/>
<text xml:space="preserve" text-anchor="middle" x="518.25" y="-12.5" font-family="Helvetica,sans-Serif" font-size="10.00">libc/include/string.h</text>
</a>
</g>
</g>
<!-- Node1&#45;&gt;Node5 -->
<g id="edge4_Node000001_Node000005" class="edge">
<title>Node1&#45;&gt;Node5</title>
<g id="a_edge4_Node000001_Node000005"><a xlink:title=" ">
<path fill="none" stroke="#63b8ff" d="M373.71,-64.13C408.46,-52.8 458.26,-36.56 489.4,-26.41"/>
<polygon fill="#63b8ff" stroke="#63b8ff" points="372.86,-60.73 364.44,-67.16 375.03,-67.38 372.86,-60.73"/>
</a>
</g>
</g>
</g>
</svg>
