<?xml version="1.0" encoding="UTF-8" standalone="no"?>
<!DOCTYPE svg PUBLIC "-//W3C//DTD SVG 1.1//EN"
 "http://www.w3.org/Graphics/SVG/1.1/DTD/svg11.dtd">
<!-- Generated by graphviz version 14.1.4 (20260321.0153)
 -->
<!-- Title: libc/include/stdint.h Pages: 1 -->
<svg width="1984pt" height="300pt"
 viewBox="0.00 0.00 1984.00 300.00" xmlns="http://www.w3.org/2000/svg" xmlns:xlink="http://www.w3.org/1999/xlink">
<g id="graph0" class="graph" transform="scale(1 1) rotate(0) translate(4 296)">
<title>libc/include/stdint.h</title>
<!-- Node1 -->
<g id="Node000001" class="node">
<title>Node1</title>
<g id="a_Node000001"><a xlink:title="Fixed&#45;width integer types.">
<polygon fill="#999999" stroke="#666666" points="1055.12,-292 955.12,-292 955.12,-272 1055.12,-272 1055.12,-292"/>
<text xml:space="preserve" text-anchor="middle" x="1005.12" y="-278.5" font-family="Helvetica,sans-Serif" font-size="10.00">libc/include/stdint.h</text>
</a>
</g>
</g>
<!-- Node2 -->
<g id="Node000002" class="node">
<title>Node2</title>
<g id="a_Node000002"><a xlink:href="amd64_2gdt_2gdt_8h_source.html" target="_top" xlink:title=" ">
<polygon fill="white" stroke="#666666" points="108.25,-236 0,-236 0,-204 108.25,-204 108.25,-236"/>
<text xml:space="preserve" text-anchor="start" x="8" y="-222.5" font-family="Helvetica,sans-Serif" font-size="10.00">kernel/include/arch</text>
<text xml:space="preserve" text-anchor="middle" x="54.12" y="-210.5" font-family="Helvetica,sans-Serif" font-size="10.00">/x86/amd64/gdt/gdt.h</text>
</a>
</g>
</g>
<!-- Node1&#45;&gt;Node2 -->
<g id="edge1_Node000001_Node000002" class="edge">
<title>Node1&#45;&gt;Node2</title>
<g id="a_edge1_Node000001_Node000002"><a xlink:title=" ">
<path fill="none" stroke="#63b8ff" d="M943.48,-281.74C798.53,-282.65 425.09,-280.09 117.12,-236 114.34,-235.6 111.5,-235.14 108.64,-234.63"/>
<polygon fill="#63b8ff" stroke="#63b8ff" points="943.26,-285.24 953.23,-281.67 943.21,-278.24 943.26,-285.24"/>
</a>
</g>
</g>
<!-- Node3 -->
<g id="Node000003" class="node">
<title>Node3</title>
<g id="a_Node000003"><a xlink:href="amd64_2idt_2idt_8h_source.html" target="_top" xlink:title=" ">
<polygon fill="white" stroke="#666666" points="228.25,-236 126,-236 126,-204 228.25,-204 228.25,-236"/>
<text xml:space="preserve" text-anchor="start" x="134" y="-222.5" font-family="Helvetica,sans-Serif" font-size="10.00">kernel/include/arch</text>
<text xml:space="preserve" text-anchor="middle" x="177.12" y="-210.5" font-family="Helvetica,sans-Serif" font-size="10.00">/x86/amd64/idt/idt.h</text>
</a>
</g>
</g>
<!-- Node1&#45;&gt;Node3 -->
<g id="edge2_Node000001_Node000003" class="edge">
<title>Node1&#45;&gt;Node3</title>
<g id="a_edge2_Node000001_Node000003"><a xlink:title=" ">
<path fill="none" stroke="#63b8ff" d="M943.58,-281.27C812.75,-281 497.61,-275.84 237.12,-236 234.37,-235.58 231.55,-235.09 228.71,-234.55"/>
<polygon fill="#63b8ff" stroke="#63b8ff" points="943.4,-284.77 953.41,-281.28 943.41,-277.77 943.4,-284.77"/>
</a>
</g>
</g>
<!-- Node4 -->
<g id="Node000004" class="node">
<title>Node4</title>
<g id="a_Node000004"><a xlink:href="amd64_2io_2io_8h_source.html" target="_top" xlink:title=" ">
<polygon fill="white" stroke="#666666" points="344,-236 246.25,-236 246.25,-204 344,-204 344,-236"/>
<text xml:space="preserve" text-anchor="start" x="254.25" y="-222.5" font-family="Helvetica,sans-Serif" font-size="10.00">kernel/include/arch</text>
<text xml:space="preserve" text-anchor="middle" x="295.12" y="-210.5" font-family="Helvetica,sans-Serif" font-size="10.00">/x86/amd64/io/io.h</text>
</a>
</g>
</g>
<!-- Node1&#45;&gt;Node4 -->
<g id="edge3_Node000001_Node000004" class="edge">
<title>Node1&#45;&gt;Node4</title>
<g id="a_edge3_Node000001_Node000004"><a xlink:title=" ">
<path fill="none" stroke="#63b8ff" d="M943.5,-280.08C828.03,-277.6 571.46,-268.59 358.12,-236 353.68,-235.32 349.08,-234.49 344.5,-233.57"/>
<polygon fill="#63b8ff" stroke="#63b8ff" points="943.31,-283.57 953.38,-280.28 943.45,-276.58 943.31,-283.57"/>
</a>
</g>
</g>
<!-- Node5 -->
<g id="Node000005" class="node">
<title>Node5</title>
<g id="a_Node000005"><a xlink:href="multiboot_8h_source.html" target="_top" xlink:title=" ">
<polygon fill="white" stroke="#666666" points="784.88,-236 677.38,-236 677.38,-204 784.88,-204 784.88,-236"/>
<text xml:space="preserve" text-anchor="start" x="685.38" y="-222.5" font-family="Helvetica,sans-Serif" font-size="10.00">kernel/include/arch</text>
<text xml:space="preserve" text-anchor="middle" x="731.12" y="-210.5" font-family="Helvetica,sans-Serif" font-size="10.00">/x86/boot/multiboot.h</text>
</a>
</g>
</g>
<!-- Node1&#45;&gt;Node5 -->
<g id="edge4_Node000001_Node000005" class="edge">
<title>Node1&#45;&gt;Node5</title>
<g id="a_edge4_Node000001_Node000005"><a xlink:title=" ">
<path fill="none" stroke="#63b8ff" d="M950.48,-269.09C908.96,-260.04 850.44,-247.26 799.12,-236 794.64,-235.02 789.98,-233.99 785.31,-232.96"/>
<polygon fill="#63b8ff" stroke="#63b8ff" points="949.72,-272.51 960.24,-271.22 951.21,-265.67 949.72,-272.51"/>
</a>
</g>
</g>
<!-- Node6 -->
<g id="Node000006" class="node">
<title>Node6</title>
<g id="a_Node000006"><a xlink:href="framebuffer_8h.html" target="_top" xlink:title=" ">
<polygon fill="white" stroke="#666666" points="612.25,-168 504,-168 504,-136 612.25,-136 612.25,-168"/>
<text xml:space="preserve" text-anchor="start" x="512" y="-154.5" font-family="Helvetica,sans-Serif" font-size="10.00">kernel/include/drivers</text>
<text xml:space="preserve" text-anchor="middle" x="558.12" y="-142.5" font-family="Helvetica,sans-Serif" font-size="10.00">/framebuffer.h</text>
</a>
</g>
</g>
<!-- Node1&#45;&gt;Node6 -->
<g id="edge20_Node000001_Node000006" class="edge">
<title>Node1&#45;&gt;Node6</title>
<g id="a_edge20_Node000001_Node000006"><a xlink:title=" ">
<path fill="none" stroke="#63b8ff" d="M943.37,-276.53C860.09,-269.86 716.63,-255.91 668.12,-236 629.62,-220.19 592.64,-187.53 572.9,-168.23"/>
<polygon fill="#63b8ff" stroke="#63b8ff" points="942.95,-280.01 953.2,-277.3 943.5,-273.03 942.95,-280.01"/>
</a>
</g>
</g>
<!-- Node8 -->
<g id="Node000008" class="node">
<title>Node8</title>
<g id="a_Node000008"><a xlink:href="framebufferbackend_8c.html" target="_top" xlink:title=" ">
<polygon fill="white" stroke="#666666" points="672.5,-32 559.75,-32 559.75,0 672.5,0 672.5,-32"/>
<text xml:space="preserve" text-anchor="start" x="567.75" y="-18.5" font-family="Helvetica,sans-Serif" font-size="10.00">kernel/src/kernel/tty</text>
<text xml:space="preserve" text-anchor="middle" x="616.12" y="-6.5" font-family="Helvetica,sans-Serif" font-size="10.00">/framebufferbackend.c</text>
</a>
</g>
</g>
<!-- Node1&#45;&gt;Node8 -->
<g id="edge40_Node000001_Node000008" class="edge">
<title>Node1&#45;&gt;Node8</title>
<g id="a_edge40_Node000001_Node000008"><a xlink:title=" ">
<path fill="none" stroke="#63b8ff" d="M943.43,-278.53C834.62,-273.6 613.21,-260.8 540.12,-236 431.98,-199.31 377.53,-199.86 322.12,-100 315.23,-87.56 312.97,-78.88 322.12,-68 351.85,-32.67 482.72,-21.82 559.47,-18.48"/>
<polygon fill="#63b8ff" stroke="#63b8ff" points="943.21,-282.02 953.35,-278.97 943.52,-275.03 943.21,-282.02"/>
</a>
</g>
</g>
<!-- Node9 -->
<g id="Node000009" class="node">
<title>Node9</title>
<g id="a_Node000009"><a xlink:href="tty_8h_source.html" target="_top" xlink:title=" ">
<polygon fill="white" stroke="#666666" points="860.75,-168 755.5,-168 755.5,-136 860.75,-136 860.75,-168"/>
<text xml:space="preserve" text-anchor="start" x="763.5" y="-154.5" font-family="Helvetica,sans-Serif" font-size="10.00">kernel/include/kernel</text>
<text xml:space="preserve" text-anchor="middle" x="808.12" y="-142.5" font-family="Helvetica,sans-Serif" font-size="10.00">/tty/tty.h</text>
</a>
</g>
</g>
<!-- Node1&#45;&gt;Node9 -->
<g id="edge34_Node000001_Node000009" class="edge">
<title>Node1&#45;&gt;Node9</title>
<g id="a_edge34_Node000001_Node000009"><a xlink:title=" ">
<path fill="none" stroke="#63b8ff" d="M947.24,-268.45C923.47,-261.47 896.55,-251.05 875.12,-236 849.21,-217.8 828.02,-186.88 816.81,-168.35"/>
<polygon fill="#63b8ff" stroke="#63b8ff" points="946.24,-271.81 956.81,-271.11 948.11,-265.06 946.24,-271.81"/>
</a>
</g>
</g>
<!-- Node10 -->
<g id="Node000010" class="node">
<title>Node10</title>
<g id="a_Node000010"><a xlink:href="vgabackend_8c.html" target="_top" xlink:title=" ">
<polygon fill="white" stroke="#666666" points="902.25,-32 800,-32 800,0 902.25,0 902.25,-32"/>
<text xml:space="preserve" text-anchor="start" x="808" y="-18.5" font-family="Helvetica,sans-Serif" font-size="10.00">kernel/src/kernel/tty</text>
<text xml:space="preserve" text-anchor="middle" x="851.12" y="-6.5" font-family="Helvetica,sans-Serif" font-size="10.00">/vgabackend.c</text>
</a>
</g>
</g>
<!-- Node1&#45;&gt;Node10 -->
<g id="edge41_Node000001_Node000010" class="edge">
<title>Node1&#45;&gt;Node10</title>
<g id="a_edge41_Node000001_Node000010"><a xlink:title=" ">
<path fill="none" stroke="#63b8ff" d="M995.74,-261.36C992.32,-253.6 988.68,-244.51 986.12,-236 964.34,-163.26 1000.99,-128.51 955.12,-68 942.13,-50.85 921.82,-39.13 902.6,-31.29"/>
<polygon fill="#63b8ff" stroke="#63b8ff" points="992.44,-262.57 999.8,-270.19 998.8,-259.64 992.44,-262.57"/>
</a>
</g>
</g>
<!-- Node11 -->
<g id="Node000011" class="node">
<title>Node11</title>
<g id="a_Node000011"><a xlink:href="i386_2gdt_2gdt_8h_source.html" target="_top" xlink:title=" ">
<polygon fill="white" stroke="#666666" points="1490,-236 1392.25,-236 1392.25,-204 1490,-204 1490,-236"/>
<text xml:space="preserve" text-anchor="start" x="1400.25" y="-222.5" font-family="Helvetica,sans-Serif" font-size="10.00">kernel/include/arch</text>
<text xml:space="preserve" text-anchor="middle" x="1441.12" y="-210.5" font-family="Helvetica,sans-Serif" font-size="10.00">/x86/i386/gdt/gdt.h</text>
</a>
</g>
</g>
<!-- Node1&#45;&gt;Node11 -->
<g id="edge11_Node000001_Node000011" class="edge">
<title>Node1&#45;&gt;Node11</title>
<g id="a_edge11_Node000001_Node000011"><a xlink:title=" ">
<path fill="none" stroke="#63b8ff" d="M1066.71,-276.23C1141.85,-269.83 1272.54,-256.78 1383.12,-236 1385.99,-235.46 1388.92,-234.86 1391.87,-234.22"/>
<polygon fill="#63b8ff" stroke="#63b8ff" points="1066.77,-272.71 1057.1,-277.04 1067.36,-279.69 1066.77,-272.71"/>
</a>
</g>
</g>
<!-- Node12 -->
<g id="Node000012" class="node">
<title>Node12</title>
<g id="a_Node000012"><a xlink:href="i386_2idt_2idt_8h_source.html" target="_top" xlink:title=" ">
<polygon fill="white" stroke="#666666" points="1606,-236 1508.25,-236 1508.25,-204 1606,-204 1606,-236"/>
<text xml:space="preserve" text-anchor="start" x="1516.25" y="-222.5" font-family="Helvetica,sans-Serif" font-size="10.00">kernel/include/arch</text>
<text xml:space="preserve" text-anchor="middle" x="1557.12" y="-210.5" font-family="Helvetica,sans-Serif" font-size="10.00">/x86/i386/idt/idt.h</text>
</a>
</g>
</g>
<!-- Node1&#45;&gt;Node12 -->
<g id="edge12_Node000001_Node000012" class="edge">
<title>Node1&#45;&gt;Node12</title>
<g id="a_edge12_Node000001_Node000012"><a xlink:title=" ">
<path fill="none" stroke="#63b8ff" d="M1066.89,-278.59C1160.83,-274.21 1344.98,-262.77 1499.12,-236 1501.99,-235.5 1504.93,-234.93 1507.88,-234.32"/>
<polygon fill="#63b8ff" stroke="#63b8ff" points="1066.96,-275.09 1057.13,-279.04 1067.28,-282.08 1066.96,-275.09"/>
</a>
</g>
</g>
<!-- Node13 -->
<g id="Node000013" class="node">
<title>Node13</title>
<g id="a_Node000013"><a xlink:href="i386_2io_2io_8h_source.html" target="_top" xlink:title=" ">
<polygon fill="white" stroke="#666666" points="1722,-236 1624.25,-236 1624.25,-204 1722,-204 1722,-236"/>
<text xml:space="preserve" text-anchor="start" x="1632.25" y="-222.5" font-family="Helvetica,sans-Serif" font-size="10.00">kernel/include/arch</text>
<text xml:space="preserve" text-anchor="middle" x="1673.12" y="-210.5" font-family="Helvetica,sans-Serif" font-size="10.00">/x86/i386/io/io.h</text>
</a>
</g>
</g>
<!-- Node1&#45;&gt;Node13 -->
<g id="edge13_Node000001_Node000013" class="edge">
<title>Node1&#45;&gt;Node13</title>
<g id="a_edge13_Node000001_Node000013"><a xlink:title=" ">
<path fill="none" stroke="#63b8ff" d="M1066.54,-280.1C1177.01,-277.69 1416.28,-268.78 1615.12,-236 1618,-235.53 1620.94,-234.98 1623.89,-234.37"/>
<polygon fill="#63b8ff" stroke="#63b8ff" points="1066.74,-276.6 1056.81,-280.31 1066.88,-283.6 1066.74,-276.6"/>
</a>
</g>
</g>
<!-- Node14 -->
<g id="Node000014" class="node">
<title>Node14</title>
<g id="a_Node000014"><a xlink:href="paging_8h_source.html" target="_top" xlink:title=" ">
<polygon fill="white" stroke="#666666" points="1860.25,-236 1740,-236 1740,-204 1860.25,-204 1860.25,-236"/>
<text xml:space="preserve" text-anchor="start" x="1748" y="-222.5" font-family="Helvetica,sans-Serif" font-size="10.00">kernel/include/arch</text>
<text xml:space="preserve" text-anchor="middle" x="1800.12" y="-210.5" font-family="Helvetica,sans-Serif" font-size="10.00">/x86/i386/mmu/paging.h</text>
</a>
</g>
</g>
<!-- Node1&#45;&gt;Node14 -->
<g id="edge14_Node000001_Node000014" class="edge">
<title>Node1&#45;&gt;Node14</title>
<g id="a_edge14_Node000001_Node000014"><a xlink:title=" ">
<path fill="none" stroke="#63b8ff" d="M1066.82,-280.33C1192.44,-278.29 1486.71,-269.94 1731.12,-236 1733.92,-235.61 1736.77,-235.17 1739.64,-234.69"/>
<polygon fill="#63b8ff" stroke="#63b8ff" points="1067.02,-276.83 1057.07,-280.49 1067.12,-283.83 1067.02,-276.83"/>
</a>
</g>
</g>
<!-- Node15 -->
<g id="Node000015" class="node">
<title>Node15</title>
<g id="a_Node000015"><a xlink:href="physicalmemorymanager_8h_source.html" target="_top" xlink:title=" ">
<polygon fill="white" stroke="#666666" points="1758.38,-168 1557.88,-168 1557.88,-136 1758.38,-136 1758.38,-168"/>
<text xml:space="preserve" text-anchor="start" x="1565.88" y="-154.5" font-family="Helvetica,sans-Serif" font-size="10.00">kernel/include/arch</text>
<text xml:space="preserve" text-anchor="middle" x="1658.12" y="-142.5" font-family="Helvetica,sans-Serif" font-size="10.00">/x86/i386/mmu/physicalmemorymanager.h</text>
</a>
</g>
</g>
<!-- Node1&#45;&gt;Node15 -->
<g id="edge15_Node000001_Node000015" class="edge">
<title>Node1&#45;&gt;Node15</title>
<g id="a_edge15_Node000001_Node000015"><a xlink:title=" ">
<path fill="none" stroke="#63b8ff" d="M1055.79,-268.46C1082.54,-260.87 1115.46,-249.94 1143.12,-236 1165.04,-224.96 1165.16,-212.66 1188.12,-204 1334.04,-149 1382.19,-185.59 1537.12,-168 1543.75,-167.25 1550.58,-166.45 1557.46,-165.64"/>
<polygon fill="#63b8ff" stroke="#63b8ff" points="1054.91,-265.08 1046.2,-271.11 1056.77,-271.82 1054.91,-265.08"/>
</a>
</g>
</g>
<!-- Node17 -->
<g id="Node000017" class="node">
<title>Node17</title>
<g id="a_Node000017"><a xlink:href="virtualmemorymanager_8h_source.html" target="_top" xlink:title=" ">
<polygon fill="white" stroke="#666666" points="1855.5,-100 1664.75,-100 1664.75,-68 1855.5,-68 1855.5,-100"/>
<text xml:space="preserve" text-anchor="start" x="1672.75" y="-86.5" font-family="Helvetica,sans-Serif" font-size="10.00">kernel/include/arch</text>
<text xml:space="preserve" text-anchor="middle" x="1760.12" y="-74.5" font-family="Helvetica,sans-Serif" font-size="10.00">/x86/i386/mmu/virtualmemorymanager.h</text>
</a>
</g>
</g>
<!-- Node1&#45;&gt;Node17 -->
<g id="edge18_Node000001_Node000017" class="edge">
<title>Node1&#45;&gt;Node17</title>
<g id="a_edge18_Node000001_Node000017"><a xlink:title=" ">
<path fill="none" stroke="#63b8ff" d="M1066.3,-272.6C1101.15,-266.06 1144.77,-254.82 1180.12,-236 1199.02,-225.94 1196.37,-212.26 1216.12,-204 1272.73,-180.34 1725.18,-212.77 1767.12,-168 1784.03,-149.95 1775.23,-118.98 1767.52,-100.41"/>
<polygon fill="#63b8ff" stroke="#63b8ff" points="1066.04,-269.09 1056.81,-274.3 1067.27,-275.98 1066.04,-269.09"/>
</a>
</g>
</g>
<!-- Node18 -->
<g id="Node000018" class="node">
<title>Node18</title>
<g id="a_Node000018"><a xlink:href="pic_8h_source.html" target="_top" xlink:title=" ">
<polygon fill="white" stroke="#666666" points="1976,-236 1878.25,-236 1878.25,-204 1976,-204 1976,-236"/>
<text xml:space="preserve" text-anchor="start" x="1886.25" y="-222.5" font-family="Helvetica,sans-Serif" font-size="10.00">kernel/include/arch</text>
<text xml:space="preserve" text-anchor="middle" x="1927.12" y="-210.5" font-family="Helvetica,sans-Serif" font-size="10.00">/x86/i386/pic/pic.h</text>
</a>
</g>
</g>
<!-- Node1&#45;&gt;Node18 -->
<g id="edge19_Node000001_Node000018" class="edge">
<title>Node1&#45;&gt;Node18</title>
<g id="a_edge19_Node000001_Node000018"><a xlink:title=" ">
<path fill="none" stroke="#63b8ff" d="M1066.83,-279.4C1237.64,-274.71 1714.2,-259.82 1869.12,-236 1872,-235.56 1874.95,-235.03 1877.9,-234.45"/>
<polygon fill="#63b8ff" stroke="#63b8ff" points="1066.97,-275.89 1057.07,-279.66 1067.16,-282.89 1066.97,-275.89"/>
</a>
</g>
</g>
<!-- Node19 -->
<g id="Node000019" class="node">
<title>Node19</title>
<g id="a_Node000019"><a xlink:href="vga_8h_source.html" target="_top" xlink:title=" ">
<polygon fill="white" stroke="#666666" points="946.25,-100 838,-100 838,-68 946.25,-68 946.25,-100"/>
<text xml:space="preserve" text-anchor="start" x="846" y="-86.5" font-family="Helvetica,sans-Serif" font-size="10.00">kernel/include/drivers</text>
<text xml:space="preserve" text-anchor="middle" x="892.12" y="-74.5" font-family="Helvetica,sans-Serif" font-size="10.00">/vga.h</text>
</a>
</g>
</g>
<!-- Node1&#45;&gt;Node19 -->
<g id="edge21_Node000001_Node000019" class="edge">
<title>Node1&#45;&gt;Node19</title>
<g id="a_edge21_Node000001_Node000019"><a xlink:title=" ">
<path fill="none" stroke="#63b8ff" d="M956.33,-267.46C940.17,-260.59 923.65,-250.53 913.12,-236 883.15,-194.63 886.44,-129.82 889.87,-100.42"/>
<polygon fill="#63b8ff" stroke="#63b8ff" points="954.82,-270.63 965.41,-270.98 957.35,-264.1 954.82,-270.63"/>
</a>
</g>
</g>
<!-- Node20 -->
<g id="Node000020" class="node">
<title>Node20</title>
<g id="a_Node000020"><a xlink:href="heap_8h_source.html" target="_top" xlink:title=" ">
<polygon fill="white" stroke="#666666" points="1919.75,-168 1814.5,-168 1814.5,-136 1919.75,-136 1919.75,-168"/>
<text xml:space="preserve" text-anchor="start" x="1822.5" y="-154.5" font-family="Helvetica,sans-Serif" font-size="10.00">kernel/include/kernel</text>
<text xml:space="preserve" text-anchor="middle" x="1867.12" y="-142.5" font-family="Helvetica,sans-Serif" font-size="10.00">/mm/heap.h</text>
</a>
</g>
</g>
<!-- Node1&#45;&gt;Node20 -->
<g id="edge24_Node000001_Node000020" class="edge">
<title>Node1&#45;&gt;Node20</title>
<g id="a_edge24_Node000001_Node000020"><a xlink:title=" ">
<path fill="none" stroke="#63b8ff" d="M1066.84,-274.91C1110.12,-268.97 1168.51,-257.55 1216.12,-236 1237.83,-226.18 1236.77,-212.24 1259.12,-204 1372.18,-162.33 1680.87,-185.21 1800.12,-168 1804.73,-167.34 1809.48,-166.53 1814.23,-165.63"/>
<polygon fill="#63b8ff" stroke="#63b8ff" points="1066.58,-271.42 1057.12,-276.18 1067.49,-278.36 1066.58,-271.42"/>
</a>
</g>
</g>
<!-- Node21 -->
<g id="Node000021" class="node">
<title>Node21</title>
<g id="a_Node000021"><a xlink:href="slab_8h_source.html" target="_top" xlink:title=" ">
<polygon fill="white" stroke="#666666" points="1373.75,-236 1268.5,-236 1268.5,-204 1373.75,-204 1373.75,-236"/>
<text xml:space="preserve" text-anchor="start" x="1276.5" y="-222.5" font-family="Helvetica,sans-Serif" font-size="10.00">kernel/include/kernel</text>
<text xml:space="preserve" text-anchor="middle" x="1321.12" y="-210.5" font-family="Helvetica,sans-Serif" font-size="10.00">/mm/slab.h</text>
</a>
</g>
</g>
<!-- Node1&#45;&gt;Node21 -->
<g id="edge25_Node000001_Node000021" class="edge">
<title>Node1&#45;&gt;Node21</title>
<g id="a_edge25_Node000001_Node000021"><a xlink:title=" ">
<path fill="none" stroke="#63b8ff" d="M1066.37,-270.66C1116.85,-261.96 1190.28,-248.91 1254.12,-236 1258.68,-235.08 1263.4,-234.09 1268.14,-233.08"/>
<polygon fill="#63b8ff" stroke="#63b8ff" points="1066.07,-267.16 1056.81,-272.3 1067.26,-274.06 1066.07,-267.16"/>
</a>
</g>
</g>
<!-- Node22 -->
<g id="Node000022" class="node">
<title>Node22</title>
<g id="a_Node000022"><a xlink:href="thread_8h_source.html" target="_top" xlink:title=" ">
<polygon fill="white" stroke="#666666" points="1501.75,-168 1396.5,-168 1396.5,-136 1501.75,-136 1501.75,-168"/>
<text xml:space="preserve" text-anchor="start" x="1404.5" y="-154.5" font-family="Helvetica,sans-Serif" font-size="10.00">kernel/include/kernel</text>
<text xml:space="preserve" text-anchor="middle" x="1449.12" y="-142.5" font-family="Helvetica,sans-Serif" font-size="10.00">/thread/thread.h</text>
</a>
</g>
</g>
<!-- Node1&#45;&gt;Node22 -->
<g id="edge27_Node000001_Node000022" class="edge">
<title>Node1&#45;&gt;Node22</title>
<g id="a_edge27_Node000001_Node000022"><a xlink:title=" ">
<path fill="none" stroke="#63b8ff" d="M1041.15,-267.42C1061.13,-259.32 1086.1,-248.25 1107.12,-236 1127.71,-224.01 1128.14,-213.17 1150.12,-204 1248.87,-162.84 1283.18,-188.79 1388.12,-168 1390.8,-167.47 1393.53,-166.9 1396.29,-166.3"/>
<polygon fill="#63b8ff" stroke="#63b8ff" points="1040.04,-264.09 1032.03,-271.04 1042.62,-270.6 1040.04,-264.09"/>
</a>
</g>
</g>
<!-- Node25 -->
<g id="Node000025" class="node">
<title>Node25</title>
<g id="a_Node000025"><a xlink:href="font8x16_8h.html" target="_top" xlink:title=" ">
<polygon fill="white" stroke="#666666" points="436.75,-100 331.5,-100 331.5,-68 436.75,-68 436.75,-100"/>
<text xml:space="preserve" text-anchor="start" x="339.5" y="-86.5" font-family="Helvetica,sans-Serif" font-size="10.00">kernel/include/kernel</text>
<text xml:space="preserve" text-anchor="middle" x="384.12" y="-74.5" font-family="Helvetica,sans-Serif" font-size="10.00">/tty/font8x16.h</text>
</a>
</g>
</g>
<!-- Node1&#45;&gt;Node25 -->
<g id="edge32_Node000001_Node000025" class="edge">
<title>Node1&#45;&gt;Node25</title>
<g id="a_edge32_Node000001_Node000025"><a xlink:title=" ">
<path fill="none" stroke="#63b8ff" d="M943.53,-281.67C864.71,-280.8 724.89,-273.4 612.12,-236 523.12,-206.48 435.75,-132.64 400.46,-100.43"/>
<polygon fill="#63b8ff" stroke="#63b8ff" points="943.17,-285.17 953.19,-281.74 943.22,-278.17 943.17,-285.17"/>
</a>
</g>
</g>
<!-- Node26 -->
<g id="Node000026" class="node">
<title>Node26</title>
<g id="a_Node000026"><a xlink:href="ttybackend_8h.html" target="_top" xlink:title=" ">
<polygon fill="white" stroke="#666666" points="737.75,-168 632.5,-168 632.5,-136 737.75,-136 737.75,-168"/>
<text xml:space="preserve" text-anchor="start" x="640.5" y="-154.5" font-family="Helvetica,sans-Serif" font-size="10.00">kernel/include/kernel</text>
<text xml:space="preserve" text-anchor="middle" x="685.12" y="-142.5" font-family="Helvetica,sans-Serif" font-size="10.00">/tty/ttybackend.h</text>
</a>
</g>
</g>
<!-- Node1&#45;&gt;Node26 -->
<g id="edge35_Node000001_Node000026" class="edge">
<title>Node1&#45;&gt;Node26</title>
<g id="a_edge35_Node000001_Node000026"><a xlink:title=" ">
<path fill="none" stroke="#63b8ff" d="M943.8,-269.81C911.66,-262.61 872.21,-251.63 839.12,-236 816.94,-225.52 815.33,-216.36 794.12,-204 771.02,-190.53 743.77,-177.78 722.3,-168.4"/>
<polygon fill="#63b8ff" stroke="#63b8ff" points="942.85,-273.18 953.36,-271.88 944.33,-266.34 942.85,-273.18"/>
</a>
</g>
</g>
<!-- Node28 -->
<g id="Node000028" class="node">
<title>Node28</title>
<g id="a_Node000028"><a xlink:href="stddef_8h.html" target="_top" xlink:title="Common definitions for C programs.">
<polygon fill="white" stroke="#666666" points="1097.62,-230 994.62,-230 994.62,-210 1097.62,-210 1097.62,-230"/>
<text xml:space="preserve" text-anchor="middle" x="1046.12" y="-216.5" font-family="Helvetica,sans-Serif" font-size="10.00">libc/include/stddef.h</text>
</a>
</g>
</g>
<!-- Node1&#45;&gt;Node28 -->
<g id="edge42_Node000001_Node000028" class="edge">
<title>Node1&#45;&gt;Node28</title>
<g id="a_edge42_Node000001_Node000028"><a xlink:title=" ">
<path fill="none" stroke="#63b8ff" d="M1017.93,-262.26C1025.24,-251.56 1034.09,-238.61 1039.9,-230.11"/>
<polygon fill="#63b8ff" stroke="#63b8ff" points="1015.14,-260.14 1012.39,-270.38 1020.92,-264.09 1015.14,-260.14"/>
</a>
</g>
</g>
<!-- Node5&#45;&gt;Node6 -->
<g id="edge5_Node000005_Node000006" class="edge">
<title>Node5&#45;&gt;Node6</title>
<g id="a_edge5_Node000005_Node000006"><a xlink:title=" ">
<path fill="none" stroke="#63b8ff" d="M679.81,-199.42C653.91,-189.54 622.95,-177.73 598.73,-168.49"/>
<polygon fill="#63b8ff" stroke="#63b8ff" points="678.56,-202.69 689.15,-202.99 681.05,-196.15 678.56,-202.69"/>
</a>
</g>
</g>
<!-- Node5&#45;&gt;Node9 -->
<g id="edge8_Node000005_Node000009" class="edge">
<title>Node5&#45;&gt;Node9</title>
<g id="a_edge8_Node000005_Node000009"><a xlink:title=" ">
<path fill="none" stroke="#63b8ff" d="M757.58,-196.32C768.31,-187.13 780.42,-176.75 790.1,-168.45"/>
<polygon fill="#63b8ff" stroke="#63b8ff" points="755.45,-193.54 750.13,-202.71 760,-198.86 755.45,-193.54"/>
</a>
</g>
</g>
<!-- Node7 -->
<g id="Node000007" class="node">
<title>Node7</title>
<g id="a_Node000007"><a xlink:href="framebufferbackend_8h.html" target="_top" xlink:title=" ">
<polygon fill="white" stroke="#666666" points="620.62,-100 493.62,-100 493.62,-68 620.62,-68 620.62,-100"/>
<text xml:space="preserve" text-anchor="start" x="501.62" y="-86.5" font-family="Helvetica,sans-Serif" font-size="10.00">kernel/include/kernel</text>
<text xml:space="preserve" text-anchor="middle" x="557.12" y="-74.5" font-family="Helvetica,sans-Serif" font-size="10.00">/tty/framebufferbackend.h</text>
</a>
</g>
</g>
<!-- Node6&#45;&gt;Node7 -->
<g id="edge6_Node000006_Node000007" class="edge">
<title>Node6&#45;&gt;Node7</title>
<g id="a_edge6_Node000006_Node000007"><a xlink:title=" ">
<path fill="none" stroke="#63b8ff" d="M557.72,-124.31C557.6,-116.12 557.46,-107.38 557.36,-100.22"/>
<polygon fill="#63b8ff" stroke="#63b8ff" points="554.22,-124.23 557.87,-134.18 561.22,-124.13 554.22,-124.23"/>
</a>
</g>
</g>
<!-- Node6&#45;&gt;Node8 -->
<g id="edge7_Node000006_Node000008" class="edge">
<title>Node6&#45;&gt;Node8</title>
<g id="a_edge7_Node000006_Node000008"><a xlink:title=" ">
<path fill="none" stroke="#63b8ff" d="M512.7,-129.71C501.32,-122.04 490.53,-112.19 484.12,-100 477.51,-87.41 476.08,-79.73 484.12,-68 501.07,-43.28 531.85,-30.54 559.42,-23.97"/>
<polygon fill="#63b8ff" stroke="#63b8ff" points="510.69,-132.58 521.04,-134.85 514.36,-126.63 510.69,-132.58"/>
</a>
</g>
</g>
<!-- Node9&#45;&gt;Node8 -->
<g id="edge9_Node000009_Node000008" class="edge">
<title>Node9&#45;&gt;Node8</title>
<g id="a_edge9_Node000009_Node000008"><a xlink:title=" ">
<path fill="none" stroke="#63b8ff" d="M796.61,-125.47C787.23,-107.22 772.39,-83.29 753.12,-68 729.87,-49.54 699.25,-37.3 672.86,-29.45"/>
<polygon fill="#63b8ff" stroke="#63b8ff" points="793.41,-126.9 800.95,-134.34 799.7,-123.82 793.41,-126.9"/>
</a>
</g>
</g>
<!-- Node9&#45;&gt;Node10 -->
<g id="edge10_Node000009_Node000010" class="edge">
<title>Node9&#45;&gt;Node10</title>
<g id="a_edge10_Node000009_Node000010"><a xlink:title=" ">
<path fill="none" stroke="#63b8ff" d="M813.62,-124.81C817.36,-108.32 822.78,-86.69 829.12,-68 833.28,-55.77 839.11,-42.37 843.73,-32.37"/>
<polygon fill="#63b8ff" stroke="#63b8ff" points="810.26,-123.8 811.53,-134.32 817.1,-125.3 810.26,-123.8"/>
</a>
</g>
</g>
<!-- Node16 -->
<g id="Node000016" class="node">
<title>Node16</title>
<g id="a_Node000016"><a xlink:href="kal_8h_source.html" target="_top" xlink:title=" ">
<polygon fill="white" stroke="#666666" points="1600,-100 1502.25,-100 1502.25,-68 1600,-68 1600,-100"/>
<text xml:space="preserve" text-anchor="start" x="1510.25" y="-86.5" font-family="Helvetica,sans-Serif" font-size="10.00">kernel/include/arch</text>
<text xml:space="preserve" text-anchor="middle" x="1551.12" y="-74.5" font-family="Helvetica,sans-Serif" font-size="10.00">/kal.h</text>
</a>
</g>
</g>
<!-- Node15&#45;&gt;Node16 -->
<g id="edge16_Node000015_Node000016" class="edge">
<title>Node15&#45;&gt;Node16</title>
<g id="a_edge16_Node000015_Node000016"><a xlink:title=" ">
<path fill="none" stroke="#63b8ff" d="M1623.31,-129.53C1607.9,-120.02 1590.11,-109.05 1576.05,-100.38"/>
<polygon fill="#63b8ff" stroke="#63b8ff" points="1621.4,-132.46 1631.75,-134.73 1625.08,-126.5 1621.4,-132.46"/>
</a>
</g>
</g>
<!-- Node15&#45;&gt;Node17 -->
<g id="edge17_Node000015_Node000017" class="edge">
<title>Node15&#45;&gt;Node17</title>
<g id="a_edge17_Node000015_Node000017"><a xlink:title=" ">
<path fill="none" stroke="#63b8ff" d="M1691.31,-129.53C1706.01,-120.02 1722.96,-109.05 1736.36,-100.38"/>
<polygon fill="#63b8ff" stroke="#63b8ff" points="1689.8,-126.33 1683.31,-134.7 1693.61,-132.21 1689.8,-126.33"/>
</a>
</g>
</g>
<!-- Node19&#45;&gt;Node8 -->
<g id="edge22_Node000019_Node000008" class="edge">
<title>Node19&#45;&gt;Node8</title>
<g id="a_edge22_Node000019_Node000008"><a xlink:title=" ">
<path fill="none" stroke="#63b8ff" d="M826.66,-67.35C779.89,-56.16 717.59,-41.26 672.91,-30.58"/>
<polygon fill="#63b8ff" stroke="#63b8ff" points="825.58,-70.69 836.12,-69.61 827.21,-63.88 825.58,-70.69"/>
</a>
</g>
</g>
<!-- Node19&#45;&gt;Node10 -->
<g id="edge23_Node000019_Node000010" class="edge">
<title>Node19&#45;&gt;Node10</title>
<g id="a_edge23_Node000019_Node000010"><a xlink:title=" ">
<path fill="none" stroke="#63b8ff" d="M876.61,-58.02C871.22,-49.34 865.34,-39.88 860.58,-32.22"/>
<polygon fill="#63b8ff" stroke="#63b8ff" points="873.57,-59.76 881.82,-66.41 879.51,-56.07 873.57,-59.76"/>
</a>
</g>
</g>
<!-- Node21&#45;&gt;Node20 -->
<g id="edge26_Node000021_Node000020" class="edge">
<title>Node21&#45;&gt;Node20</title>
<g id="a_edge26_Node000021_Node000020"><a xlink:title=" ">
<path fill="none" stroke="#63b8ff" d="M1385.24,-203.83C1568.71,-174.9 1619.87,-195.83 1800.12,-168 1804.72,-167.29 1809.47,-166.45 1814.22,-165.53"/>
<polygon fill="#63b8ff" stroke="#63b8ff" points="1384.93,-200.34 1375.61,-205.38 1386.04,-207.25 1384.93,-200.34"/>
</a>
</g>
</g>
<!-- Node22&#45;&gt;Node16 -->
<g id="edge28_Node000022_Node000016" class="edge">
<title>Node22&#45;&gt;Node16</title>
<g id="a_edge28_Node000022_Node000016"><a xlink:title=" ">
<path fill="none" stroke="#63b8ff" d="M1482.31,-129.53C1497.01,-120.02 1513.96,-109.05 1527.36,-100.38"/>
<polygon fill="#63b8ff" stroke="#63b8ff" points="1480.8,-126.33 1474.31,-134.7 1484.61,-132.21 1480.8,-126.33"/>
</a>
</g>
</g>
<!-- Node23 -->
<g id="Node000023" class="node">
<title>Node23</title>
<g id="a_Node000023"><a xlink:href="scheduler_8h.html" target="_top" xlink:title=" ">
<polygon fill="white" stroke="#666666" points="1484.25,-100 1370,-100 1370,-68 1484.25,-68 1484.25,-100"/>
<text xml:space="preserve" text-anchor="start" x="1378" y="-86.5" font-family="Helvetica,sans-Serif" font-size="10.00">kernel/include/kernel</text>
<text xml:space="preserve" text-anchor="middle" x="1427.12" y="-74.5" font-family="Helvetica,sans-Serif" font-size="10.00">/scheduler/scheduler.h</text>
</a>
</g>
</g>
<!-- Node22&#45;&gt;Node23 -->
<g id="edge29_Node000022_Node000023" class="edge">
<title>Node22&#45;&gt;Node23</title>
<g id="a_edge29_Node000022_Node000023"><a xlink:title=" ">
<path fill="none" stroke="#63b8ff" d="M1440.42,-124.89C1437.63,-116.52 1434.64,-107.54 1432.2,-100.22"/>
<polygon fill="#63b8ff" stroke="#63b8ff" points="1437.06,-125.88 1443.54,-134.26 1443.7,-123.66 1437.06,-125.88"/>
</a>
</g>
</g>
<!-- Node24 -->
<g id="Node000024" class="node">
<title>Node24</title>
<g id="a_Node000024"><a xlink:href="scheduler_8c.html" target="_top" xlink:title=" ">
<polygon fill="white" stroke="#666666" points="1408.62,-32 1275.62,-32 1275.62,0 1408.62,0 1408.62,-32"/>
<text xml:space="preserve" text-anchor="start" x="1283.62" y="-18.5" font-family="Helvetica,sans-Serif" font-size="10.00">kernel/src/kernel/scheduler</text>
<text xml:space="preserve" text-anchor="middle" x="1342.12" y="-6.5" font-family="Helvetica,sans-Serif" font-size="10.00">/scheduler.c</text>
</a>
</g>
</g>
<!-- Node22&#45;&gt;Node24 -->
<g id="edge31_Node000022_Node000024" class="edge">
<title>Node22&#45;&gt;Node24</title>
<g id="a_edge31_Node000022_Node000024"><a xlink:title=" ">
<path fill="none" stroke="#63b8ff" d="M1397.69,-130.44C1384.03,-122.74 1370.48,-112.7 1361.12,-100 1346.3,-79.89 1342.77,-50.16 1342.08,-32.28"/>
<polygon fill="#63b8ff" stroke="#63b8ff" points="1395.78,-133.39 1406.26,-134.93 1399.03,-127.19 1395.78,-133.39"/>
</a>
</g>
</g>
<!-- Node23&#45;&gt;Node24 -->
<g id="edge30_Node000023_Node000024" class="edge">
<title>Node23&#45;&gt;Node24</title>
<g id="a_edge30_Node000023_Node000024"><a xlink:title=" ">
<path fill="none" stroke="#63b8ff" d="M1398.63,-60.87C1386.62,-51.55 1372.92,-40.91 1362.03,-32.45"/>
<polygon fill="#63b8ff" stroke="#63b8ff" points="1396.17,-63.4 1406.22,-66.76 1400.46,-57.87 1396.17,-63.4"/>
</a>
</g>
</g>
<!-- Node25&#45;&gt;Node8 -->
<g id="edge33_Node000025_Node000008" class="edge">
<title>Node25&#45;&gt;Node8</title>
<g id="a_edge33_Node000025_Node000008"><a xlink:title=" ">
<path fill="none" stroke="#63b8ff" d="M447.86,-64.87C483.61,-54.7 527.72,-42.15 561.81,-32.45"/>
<polygon fill="#63b8ff" stroke="#63b8ff" points="447.18,-61.42 438.52,-67.53 449.09,-68.16 447.18,-61.42"/>
</a>
</g>
</g>
<!-- Node26&#45;&gt;Node7 -->
<g id="edge36_Node000026_Node000007" class="edge">
<title>Node26&#45;&gt;Node7</title>
<g id="a_edge36_Node000026_Node000007"><a xlink:title=" ">
<path fill="none" stroke="#63b8ff" d="M645.05,-130.34C626.26,-120.65 604.25,-109.3 586.95,-100.38"/>
<polygon fill="#63b8ff" stroke="#63b8ff" points="643.28,-133.36 653.77,-134.83 646.49,-127.14 643.28,-133.36"/>
</a>
</g>
</g>
<!-- Node27 -->
<g id="Node000027" class="node">
<title>Node27</title>
<g id="a_Node000027"><a xlink:href="vgabackend_8h.html" target="_top" xlink:title=" ">
<polygon fill="white" stroke="#666666" points="743.75,-100 638.5,-100 638.5,-68 743.75,-68 743.75,-100"/>
<text xml:space="preserve" text-anchor="start" x="646.5" y="-86.5" font-family="Helvetica,sans-Serif" font-size="10.00">kernel/include/kernel</text>
<text xml:space="preserve" text-anchor="middle" x="691.12" y="-74.5" font-family="Helvetica,sans-Serif" font-size="10.00">/tty/vgabackend.h</text>
</a>
</g>
</g>
<!-- Node26&#45;&gt;Node27 -->
<g id="edge37_Node000026_Node000027" class="edge">
<title>Node26&#45;&gt;Node27</title>
<g id="a_edge37_Node000026_Node000027"><a xlink:title=" ">
<path fill="none" stroke="#63b8ff" d="M687.55,-124.31C688.3,-116.12 689.09,-107.38 689.74,-100.22"/>
<polygon fill="#63b8ff" stroke="#63b8ff" points="684.07,-123.91 686.65,-134.19 691.04,-124.54 684.07,-123.91"/>
</a>
</g>
</g>
<!-- Node27&#45;&gt;Node8 -->
<g id="edge38_Node000027_Node000008" class="edge">
<title>Node27&#45;&gt;Node8</title>
<g id="a_edge38_Node000027_Node000008"><a xlink:title=" ">
<path fill="none" stroke="#63b8ff" d="M665.35,-60.32C654.91,-51.13 643.11,-40.75 633.69,-32.45"/>
<polygon fill="#63b8ff" stroke="#63b8ff" points="662.77,-62.71 672.59,-66.69 667.4,-57.46 662.77,-62.71"/>
</a>
</g>
</g>
<!-- Node27&#45;&gt;Node10 -->
<g id="edge39_Node000027_Node000010" class="edge">
<title>Node27&#45;&gt;Node10</title>
<g id="a_edge39_Node000027_Node000010"><a xlink:title=" ">
<path fill="none" stroke="#63b8ff" d="M739.23,-63.16C763.04,-53.33 791.38,-41.65 813.57,-32.49"/>
<polygon fill="#63b8ff" stroke="#63b8ff" points="737.95,-59.9 730.04,-66.95 740.62,-66.37 737.95,-59.9"/>
</a>
</g>
</g>
<!-- Node28&#45;&gt;Node9 -->
<g id="edge50_Node000028_Node000009" class="edge">
<title>Node28&#45;&gt;Node9</title>
<g id="a_edge50_Node000028_Node000009"><a xlink:title=" ">
<path fill="none" stroke="#63b8ff" d="M1001.05,-206.5C961.21,-195.45 903.07,-179.33 861.03,-167.67"/>
<polygon fill="#63b8ff" stroke="#63b8ff" points="1000,-209.84 1010.57,-209.14 1001.87,-203.09 1000,-209.84"/>
</a>
</g>
</g>
<!-- Node28&#45;&gt;Node15 -->
<g id="edge44_Node000028_Node000015" class="edge">
<title>Node28&#45;&gt;Node15</title>
<g id="a_edge44_Node000028_Node000015"><a xlink:title=" ">
<path fill="none" stroke="#63b8ff" d="M1109.06,-209.38C1122.59,-207.47 1136.82,-205.57 1150.12,-204 1324.76,-183.44 1369.37,-187.47 1544.12,-168 1548.49,-167.51 1552.95,-167 1557.45,-166.47"/>
<polygon fill="#63b8ff" stroke="#63b8ff" points="1108.79,-205.89 1099.4,-210.77 1109.79,-212.82 1108.79,-205.89"/>
</a>
</g>
</g>
<!-- Node28&#45;&gt;Node16 -->
<g id="edge43_Node000028_Node000016" class="edge">
<title>Node28&#45;&gt;Node16</title>
<g id="a_edge43_Node000028_Node000016"><a xlink:title=" ">
<path fill="none" stroke="#63b8ff" d="M1109.07,-209.47C1122.6,-207.55 1136.83,-205.62 1150.12,-204 1230.15,-194.24 1445.07,-214.22 1511.12,-168 1533.93,-152.04 1544.21,-119.43 1548.46,-100.18"/>
<polygon fill="#63b8ff" stroke="#63b8ff" points="1108.8,-205.97 1099.41,-210.86 1109.8,-212.9 1108.8,-205.97"/>
</a>
</g>
</g>
<!-- Node28&#45;&gt;Node19 -->
<g id="edge45_Node000028_Node000019" class="edge">
<title>Node28&#45;&gt;Node19</title>
<g id="a_edge45_Node000028_Node000019"><a xlink:title=" ">
<path fill="none" stroke="#63b8ff" d="M1027.19,-202.53C997.2,-176.42 939.15,-125.92 909.89,-100.46"/>
<polygon fill="#63b8ff" stroke="#63b8ff" points="1024.56,-204.87 1034.4,-208.8 1029.15,-199.59 1024.56,-204.87"/>
</a>
</g>
</g>
<!-- Node28&#45;&gt;Node20 -->
<g id="edge48_Node000028_Node000020" class="edge">
<title>Node28&#45;&gt;Node20</title>
<g id="a_edge48_Node000028_Node000020"><a xlink:title=" ">
<path fill="none" stroke="#63b8ff" d="M1109.43,-213.46C1143.92,-210.51 1187.35,-206.91 1226.12,-204 1466.43,-185.99 1527.54,-193.9 1767.12,-168 1782.4,-166.35 1798.91,-164.07 1814.04,-161.8"/>
<polygon fill="#63b8ff" stroke="#63b8ff" points="1109.27,-209.97 1099.6,-214.31 1109.86,-216.94 1109.27,-209.97"/>
</a>
</g>
</g>
<!-- Node28&#45;&gt;Node22 -->
<g id="edge49_Node000028_Node000022" class="edge">
<title>Node28&#45;&gt;Node22</title>
<g id="a_edge49_Node000028_Node000022"><a xlink:title=" ">
<path fill="none" stroke="#63b8ff" d="M1096.07,-207.13C1101.47,-206 1106.91,-204.93 1112.12,-204 1233.91,-182.27 1266.54,-190.81 1388.12,-168 1390.8,-167.5 1393.54,-166.95 1396.3,-166.37"/>
<polygon fill="#63b8ff" stroke="#63b8ff" points="1095.6,-203.65 1086.57,-209.19 1097.08,-210.49 1095.6,-203.65"/>
</a>
</g>
</g>
<!-- Node28&#45;&gt;Node24 -->
<g id="edge52_Node000028_Node000024" class="edge">
<title>Node28&#45;&gt;Node24</title>
<g id="a_edge52_Node000028_Node000024"><a xlink:title=" ">
<path fill="none" stroke="#63b8ff" d="M1032.32,-200.38C1020.91,-182.51 1008.6,-155.46 1022.12,-136 1079.04,-54.11 1199.37,-28.46 1275.17,-20.5"/>
<polygon fill="#63b8ff" stroke="#63b8ff" points="1029.32,-202.2 1037.87,-208.46 1035.09,-198.23 1029.32,-202.2"/>
</a>
</g>
</g>
<!-- Node28&#45;&gt;Node26 -->
<g id="edge51_Node000028_Node000026" class="edge">
<title>Node28&#45;&gt;Node26</title>
<g id="a_edge51_Node000028_Node000026"><a xlink:title=" ">
<path fill="none" stroke="#63b8ff" d="M982.81,-209.61C921.92,-200.25 827.4,-184.88 746.12,-168 743.46,-167.45 740.73,-166.86 737.97,-166.24"/>
<polygon fill="#63b8ff" stroke="#63b8ff" points="982.24,-213.06 992.65,-211.11 983.3,-206.14 982.24,-213.06"/>
</a>
</g>
</g>
<!-- Node29 -->
<g id="Node000029" class="node">
<title>Node29</title>
<g id="a_Node000029"><a xlink:href="kernel_2include_2kernel_2libk_2stdlib_8h_source.html" target="_top" xlink:title=" ">
<polygon fill="white" stroke="#666666" points="1378.75,-168 1273.5,-168 1273.5,-136 1378.75,-136 1378.75,-168"/>
<text xml:space="preserve" text-anchor="start" x="1281.5" y="-154.5" font-family="Helvetica,sans-Serif" font-size="10.00">kernel/include/kernel</text>
<text xml:space="preserve" text-anchor="middle" x="1326.12" y="-142.5" font-family="Helvetica,sans-Serif" font-size="10.00">/libk/stdlib.h</text>
</a>
</g>
</g>
<!-- Node28&#45;&gt;Node29 -->
<g id="edge46_Node000028_Node000029" class="edge">
<title>Node28&#45;&gt;Node29</title>
<g id="a_edge46_Node000028_Node000029"><a xlink:title=" ">
<path fill="none" stroke="#63b8ff" d="M1098.17,-206.94C1142.35,-196.68 1207.42,-181.49 1264.12,-168 1267.03,-167.31 1270.02,-166.59 1273.03,-165.87"/>
<polygon fill="#63b8ff" stroke="#63b8ff" points="1097.55,-203.49 1088.6,-209.16 1099.14,-210.31 1097.55,-203.49"/>
</a>
</g>
</g>
<!-- Node30 -->
<g id="Node000030" class="node">
<title>Node30</title>
<g id="a_Node000030"><a xlink:href="kernel_2include_2kernel_2libk_2string_8h_source.html" target="_top" xlink:title=" ">
<polygon fill="white" stroke="#666666" points="1136.75,-168 1031.5,-168 1031.5,-136 1136.75,-136 1136.75,-168"/>
<text xml:space="preserve" text-anchor="start" x="1039.5" y="-154.5" font-family="Helvetica,sans-Serif" font-size="10.00">kernel/include/kernel</text>
<text xml:space="preserve" text-anchor="middle" x="1084.12" y="-142.5" font-family="Helvetica,sans-Serif" font-size="10.00">/libk/string.h</text>
</a>
</g>
</g>
<!-- Node28&#45;&gt;Node30 -->
<g id="edge47_Node000028_Node000030" class="edge">
<title>Node28&#45;&gt;Node30</title>
<g id="a_edge47_Node000028_Node000030"><a xlink:title=" ">
<path fill="none" stroke="#63b8ff" d="M1057.23,-199.71C1062.99,-189.71 1069.93,-177.66 1075.32,-168.3"/>
<polygon fill="#63b8ff" stroke="#63b8ff" points="1054.28,-197.82 1052.32,-208.23 1060.35,-201.31 1054.28,-197.82"/>
</a>
</g>
</g>
<!-- Node31 -->
<g id="Node000031" class="node">
<title>Node31</title>
<g id="a_Node000031"><a xlink:href="libc_2include_2string_8h_source.html" target="_top" xlink:title=" ">
<polygon fill="white" stroke="#666666" points="1255.12,-162 1155.12,-162 1155.12,-142 1255.12,-142 1255.12,-162"/>
<text xml:space="preserve" text-anchor="middle" x="1205.12" y="-148.5" font-family="Helvetica,sans-Serif" font-size="10.00">libc/include/string.h</text>
</a>
</g>
</g>
<!-- Node28&#45;&gt;Node31 -->
<g id="edge53_Node000028_Node000031" class="edge">
<title>Node28&#45;&gt;Node31</title>
<g id="a_edge53_Node000028_Node000031"><a xlink:title=" ">
<path fill="none" stroke="#63b8ff" d="M1079.18,-205.28C1110.07,-192.46 1155.37,-173.65 1182.39,-162.44"/>
<polygon fill="#63b8ff" stroke="#63b8ff" points="1078.2,-201.9 1070.3,-208.96 1080.88,-208.36 1078.2,-201.9"/>
</a>
</g>
</g>
</g>
</svg>
