<?xml version="1.0" encoding="UTF-8" standalone="no"?>
<!DOCTYPE svg PUBLIC "-//W3C//DTD SVG 1.1//EN"
 "http://www.w3.org/Graphics/SVG/1.1/DTD/svg11.dtd">
<!-- Generated by graphviz version 14.1.4 (20260321.0153)
 -->
<!-- Title: libc/include/stdint.h Pages: 1 -->
<svg width="1036pt" height="164pt"
 viewBox="0.00 0.00 1036.00 164.00" xmlns="http://www.w3.org/2000/svg" xmlns:xlink="http://www.w3.org/1999/xlink">
<g id="graph0" class="graph" transform="scale(1 1) rotate(0) translate(4 160)">
<title>libc/include/stdint.h</title>
<!-- Node1 -->
<g id="Node000001" class="node">
<title>Node1</title>
<g id="a_Node000001"><a xlink:title="Fixed&#45;width integer types.">
<polygon fill="#999999" stroke="#666666" points="564.88,-156 464.88,-156 464.88,-136 564.88,-136 564.88,-156"/>
<text xml:space="preserve" text-anchor="middle" x="514.88" y="-142.5" font-family="Helvetica,sans-Serif" font-size="10.00">libc/include/stdint.h</text>
</a>
</g>
</g>
<!-- Node2 -->
<g id="Node000002" class="node">
<title>Node2</title>
<g id="a_Node000002"><a xlink:href="gdt_8h_source.html" target="_top" xlink:title=" ">
<polygon fill="white" stroke="#666666" points="97.75,-100 0,-100 0,-68 97.75,-68 97.75,-100"/>
<text xml:space="preserve" text-anchor="start" x="8" y="-86.5" font-family="Helvetica,sans-Serif" font-size="10.00">kernel/include/arch</text>
<text xml:space="preserve" text-anchor="middle" x="48.88" y="-74.5" font-family="Helvetica,sans-Serif" font-size="10.00">/x86/i386/gdt/gdt.h</text>
</a>
</g>
</g>
<!-- Node1&#45;&gt;Node2 -->
<g id="edge1_Node000001_Node000002" class="edge">
<title>Node1&#45;&gt;Node2</title>
<g id="a_edge1_Node000001_Node000002"><a xlink:title=" ">
<path fill="none" stroke="#63b8ff" d="M453.24,-140.96C373.01,-135.08 228.63,-122.34 106.88,-100 104.01,-99.47 101.08,-98.88 98.13,-98.25"/>
<polygon fill="#63b8ff" stroke="#63b8ff" points="452.87,-144.45 463.1,-141.67 453.37,-137.47 452.87,-144.45"/>
</a>
</g>
</g>
<!-- Node3 -->
<g id="Node000003" class="node">
<title>Node3</title>
<g id="a_Node000003"><a xlink:href="idt_8h_source.html" target="_top" xlink:title=" ">
<polygon fill="white" stroke="#666666" points="213.75,-100 116,-100 116,-68 213.75,-68 213.75,-100"/>
<text xml:space="preserve" text-anchor="start" x="124" y="-86.5" font-family="Helvetica,sans-Serif" font-size="10.00">kernel/include/arch</text>
<text xml:space="preserve" text-anchor="middle" x="164.88" y="-74.5" font-family="Helvetica,sans-Serif" font-size="10.00">/x86/i386/idt/idt.h</text>
</a>
</g>
</g>
<!-- Node1&#45;&gt;Node3 -->
<g id="edge2_Node000001_Node000003" class="edge">
<title>Node1&#45;&gt;Node3</title>
<g id="a_edge2_Node000001_Node000003"><a xlink:title=" ">
<path fill="none" stroke="#63b8ff" d="M453.07,-137.3C393.74,-129.49 301.77,-116.24 222.88,-100 220.02,-99.41 217.1,-98.77 214.16,-98.1"/>
<polygon fill="#63b8ff" stroke="#63b8ff" points="452.61,-140.77 462.98,-138.6 453.52,-133.83 452.61,-140.77"/>
</a>
</g>
</g>
<!-- Node4 -->
<g id="Node000004" class="node">
<title>Node4</title>
<g id="a_Node000004"><a xlink:href="io_8h_source.html" target="_top" xlink:title=" ">
<polygon fill="white" stroke="#666666" points="329.75,-100 232,-100 232,-68 329.75,-68 329.75,-100"/>
<text xml:space="preserve" text-anchor="start" x="240" y="-86.5" font-family="Helvetica,sans-Serif" font-size="10.00">kernel/include/arch</text>
<text xml:space="preserve" text-anchor="middle" x="280.88" y="-74.5" font-family="Helvetica,sans-Serif" font-size="10.00">/x86/i386/io/io.h</text>
</a>
</g>
</g>
<!-- Node1&#45;&gt;Node4 -->
<g id="edge3_Node000001_Node000004" class="edge">
<title>Node1&#45;&gt;Node4</title>
<g id="a_edge3_Node000001_Node000004"><a xlink:title=" ">
<path fill="none" stroke="#63b8ff" d="M466.81,-132.75C431.42,-123.72 382.15,-111.13 338.88,-100 336.05,-99.27 333.16,-98.53 330.23,-97.78"/>
<polygon fill="#63b8ff" stroke="#63b8ff" points="465.76,-136.09 476.32,-135.17 467.49,-129.31 465.76,-136.09"/>
</a>
</g>
</g>
<!-- Node5 -->
<g id="Node000005" class="node">
<title>Node5</title>
<g id="a_Node000005"><a xlink:href="paging_8h_source.html" target="_top" xlink:title=" ">
<polygon fill="white" stroke="#666666" points="468,-100 347.75,-100 347.75,-68 468,-68 468,-100"/>
<text xml:space="preserve" text-anchor="start" x="355.75" y="-86.5" font-family="Helvetica,sans-Serif" font-size="10.00">kernel/include/arch</text>
<text xml:space="preserve" text-anchor="middle" x="407.88" y="-74.5" font-family="Helvetica,sans-Serif" font-size="10.00">/x86/i386/mmu/paging.h</text>
</a>
</g>
</g>
<!-- Node1&#45;&gt;Node5 -->
<g id="edge4_Node000001_Node000005" class="edge">
<title>Node1&#45;&gt;Node5</title>
<g id="a_edge4_Node000001_Node000005"><a xlink:title=" ">
<path fill="none" stroke="#63b8ff" d="M488.28,-130.08C472.14,-121.03 451.58,-109.51 435.29,-100.37"/>
<polygon fill="#63b8ff" stroke="#63b8ff" points="486.4,-133.05 496.84,-134.88 489.83,-126.94 486.4,-133.05"/>
</a>
</g>
</g>
<!-- Node6 -->
<g id="Node000006" class="node">
<title>Node6</title>
<g id="a_Node000006"><a xlink:href="physicalmemorymanager_8h_source.html" target="_top" xlink:title=" ">
<polygon fill="white" stroke="#666666" points="462.12,-32 261.62,-32 261.62,0 462.12,0 462.12,-32"/>
<text xml:space="preserve" text-anchor="start" x="269.62" y="-18.5" font-family="Helvetica,sans-Serif" font-size="10.00">kernel/include/arch</text>
<text xml:space="preserve" text-anchor="middle" x="361.88" y="-6.5" font-family="Helvetica,sans-Serif" font-size="10.00">/x86/i386/mmu/physicalmemorymanager.h</text>
</a>
</g>
</g>
<!-- Node1&#45;&gt;Node6 -->
<g id="edge5_Node000001_Node000006" class="edge">
<title>Node1&#45;&gt;Node6</title>
<g id="a_edge5_Node000001_Node000006"><a xlink:title=" ">
<path fill="none" stroke="#63b8ff" d="M509.17,-124.73C503.46,-107.67 493.15,-83.62 476.88,-68 460.17,-51.97 437.59,-40.47 416.85,-32.5"/>
<polygon fill="#63b8ff" stroke="#63b8ff" points="505.81,-125.72 512.09,-134.25 512.5,-123.66 505.81,-125.72"/>
</a>
</g>
</g>
<!-- Node7 -->
<g id="Node000007" class="node">
<title>Node7</title>
<g id="a_Node000007"><a xlink:href="virtualmemorymanager_8h_source.html" target="_top" xlink:title=" ">
<polygon fill="white" stroke="#666666" points="912.25,-100 721.5,-100 721.5,-68 912.25,-68 912.25,-100"/>
<text xml:space="preserve" text-anchor="start" x="729.5" y="-86.5" font-family="Helvetica,sans-Serif" font-size="10.00">kernel/include/arch</text>
<text xml:space="preserve" text-anchor="middle" x="816.88" y="-74.5" font-family="Helvetica,sans-Serif" font-size="10.00">/x86/i386/mmu/virtualmemorymanager.h</text>
</a>
</g>
</g>
<!-- Node1&#45;&gt;Node7 -->
<g id="edge6_Node000001_Node000007" class="edge">
<title>Node1&#45;&gt;Node7</title>
<g id="a_edge6_Node000001_Node000007"><a xlink:title=" ">
<path fill="none" stroke="#63b8ff" d="M573.65,-133.32C620.83,-123.95 687.48,-110.71 739.08,-100.46"/>
<polygon fill="#63b8ff" stroke="#63b8ff" points="573.01,-129.88 563.88,-135.26 574.37,-136.75 573.01,-129.88"/>
</a>
</g>
</g>
<!-- Node8 -->
<g id="Node000008" class="node">
<title>Node8</title>
<g id="a_Node000008"><a xlink:href="pic_8h_source.html" target="_top" xlink:title=" ">
<polygon fill="white" stroke="#666666" points="1027.75,-100 930,-100 930,-68 1027.75,-68 1027.75,-100"/>
<text xml:space="preserve" text-anchor="start" x="938" y="-86.5" font-family="Helvetica,sans-Serif" font-size="10.00">kernel/include/arch</text>
<text xml:space="preserve" text-anchor="middle" x="978.88" y="-74.5" font-family="Helvetica,sans-Serif" font-size="10.00">/x86/i386/pic/pic.h</text>
</a>
</g>
</g>
<!-- Node1&#45;&gt;Node8 -->
<g id="edge7_Node000001_Node000008" class="edge">
<title>Node1&#45;&gt;Node8</title>
<g id="a_edge7_Node000001_Node000008"><a xlink:title=" ">
<path fill="none" stroke="#63b8ff" d="M576.53,-140.92C656.44,-135 799.88,-122.23 920.88,-100 923.74,-99.47 926.67,-98.88 929.62,-98.25"/>
<polygon fill="#63b8ff" stroke="#63b8ff" points="576.44,-137.41 566.72,-141.63 576.95,-144.4 576.44,-137.41"/>
</a>
</g>
</g>
<!-- Node9 -->
<g id="Node000009" class="node">
<title>Node9</title>
<g id="a_Node000009"><a xlink:href="vga_8h_source.html" target="_top" xlink:title=" ">
<polygon fill="white" stroke="#666666" points="588,-32 479.75,-32 479.75,0 588,0 588,-32"/>
<text xml:space="preserve" text-anchor="start" x="487.75" y="-18.5" font-family="Helvetica,sans-Serif" font-size="10.00">kernel/include/drivers</text>
<text xml:space="preserve" text-anchor="middle" x="533.88" y="-6.5" font-family="Helvetica,sans-Serif" font-size="10.00">/vga.h</text>
</a>
</g>
</g>
<!-- Node1&#45;&gt;Node9 -->
<g id="edge8_Node000001_Node000009" class="edge">
<title>Node1&#45;&gt;Node9</title>
<g id="a_edge8_Node000001_Node000009"><a xlink:title=" ">
<path fill="none" stroke="#63b8ff" d="M517.92,-124.46C521.74,-98.73 528.2,-55.24 531.61,-32.27"/>
<polygon fill="#63b8ff" stroke="#63b8ff" points="514.47,-123.89 516.46,-134.3 521.39,-124.92 514.47,-123.89"/>
</a>
</g>
</g>
<!-- Node10 -->
<g id="Node000010" class="node">
<title>Node10</title>
<g id="a_Node000010"><a xlink:href="tty_8h_source.html" target="_top" xlink:title=" ">
<polygon fill="white" stroke="#666666" points="829.5,-32 724.25,-32 724.25,0 829.5,0 829.5,-32"/>
<text xml:space="preserve" text-anchor="start" x="732.25" y="-18.5" font-family="Helvetica,sans-Serif" font-size="10.00">kernel/include/kernel</text>
<text xml:space="preserve" text-anchor="middle" x="776.88" y="-6.5" font-family="Helvetica,sans-Serif" font-size="10.00">/tty/tty.h</text>
</a>
</g>
</g>
<!-- Node1&#45;&gt;Node10 -->
<g id="edge9_Node000001_Node000010" class="edge">
<title>Node1&#45;&gt;Node10</title>
<g id="a_edge9_Node000001_Node000010"><a xlink:title=" ">
<path fill="none" stroke="#63b8ff" d="M576.28,-134.16C607.06,-127.15 644.21,-116.24 674.88,-100 694.39,-89.67 695.8,-81.99 712.88,-68 727.6,-55.94 744.45,-42.53 757.16,-32.49"/>
<polygon fill="#63b8ff" stroke="#63b8ff" points="575.75,-130.69 566.73,-136.24 577.24,-137.53 575.75,-130.69"/>
</a>
</g>
</g>
<!-- Node11 -->
<g id="Node000011" class="node">
<title>Node11</title>
<g id="a_Node000011"><a xlink:href="stddef_8h.html" target="_top" xlink:title="Common definitions for C programs.">
<polygon fill="white" stroke="#666666" points="665.38,-94 562.38,-94 562.38,-74 665.38,-74 665.38,-94"/>
<text xml:space="preserve" text-anchor="middle" x="613.88" y="-80.5" font-family="Helvetica,sans-Serif" font-size="10.00">libc/include/stddef.h</text>
</a>
</g>
</g>
<!-- Node1&#45;&gt;Node11 -->
<g id="edge10_Node000001_Node000011" class="edge">
<title>Node1&#45;&gt;Node11</title>
<g id="a_edge10_Node000001_Node000011"><a xlink:title=" ">
<path fill="none" stroke="#63b8ff" d="M540.13,-129.69C558.56,-118.52 582.94,-103.75 598.51,-94.31"/>
<polygon fill="#63b8ff" stroke="#63b8ff" points="538.38,-126.66 531.64,-134.84 542,-132.65 538.38,-126.66"/>
</a>
</g>
</g>
<!-- Node11&#45;&gt;Node6 -->
<g id="edge11_Node000011_Node000006" class="edge">
<title>Node11&#45;&gt;Node6</title>
<g id="a_edge11_Node000011_Node000006"><a xlink:title=" ">
<path fill="none" stroke="#63b8ff" d="M566.65,-70.63C525.36,-59.82 465.21,-44.06 420.78,-32.43"/>
<polygon fill="#63b8ff" stroke="#63b8ff" points="565.74,-74.01 576.31,-73.16 567.52,-67.24 565.74,-74.01"/>
</a>
</g>
</g>
<!-- Node11&#45;&gt;Node9 -->
<g id="edge12_Node000011_Node000009" class="edge">
<title>Node11&#45;&gt;Node9</title>
<g id="a_edge12_Node000011_Node000009"><a xlink:title=" ">
<path fill="none" stroke="#63b8ff" d="M593.54,-66.22C580.88,-55.78 564.73,-42.45 552.42,-32.3"/>
<polygon fill="#63b8ff" stroke="#63b8ff" points="591.3,-68.92 601.25,-72.58 595.76,-63.52 591.3,-68.92"/>
</a>
</g>
</g>
<!-- Node11&#45;&gt;Node10 -->
<g id="edge13_Node000011_Node000010" class="edge">
<title>Node11&#45;&gt;Node10</title>
<g id="a_edge13_Node000011_Node000010"><a xlink:title=" ">
<path fill="none" stroke="#63b8ff" d="M647.56,-69.36C674.11,-58.61 711.14,-43.62 738.77,-32.43"/>
<polygon fill="#63b8ff" stroke="#63b8ff" points="646.59,-65.98 638.63,-72.98 649.21,-72.47 646.59,-65.98"/>
</a>
</g>
</g>
<!-- Node12 -->
<g id="Node000012" class="node">
<title>Node12</title>
<g id="a_Node000012"><a xlink:href="string_8h_source.html" target="_top" xlink:title=" ">
<polygon fill="white" stroke="#666666" points="705.88,-26 605.88,-26 605.88,-6 705.88,-6 705.88,-26"/>
<text xml:space="preserve" text-anchor="middle" x="655.88" y="-12.5" font-family="Helvetica,sans-Serif" font-size="10.00">libc/include/string.h</text>
</a>
</g>
</g>
<!-- Node11&#45;&gt;Node12 -->
<g id="edge14_Node000011_Node000012" class="edge">
<title>Node11&#45;&gt;Node12</title>
<g id="a_edge14_Node000011_Node000012"><a xlink:title=" ">
<path fill="none" stroke="#63b8ff" d="M625.87,-64.15C633.72,-51.82 643.64,-36.23 649.87,-26.44"/>
<polygon fill="#63b8ff" stroke="#63b8ff" points="623.12,-61.95 620.71,-72.27 629.03,-65.71 623.12,-61.95"/>
</a>
</g>
</g>
</g>
</svg>
