<?xml version="1.0" encoding="UTF-8" standalone="no"?>
<!DOCTYPE svg PUBLIC "-//W3C//DTD SVG 1.1//EN"
 "http://www.w3.org/Graphics/SVG/1.1/DTD/svg11.dtd">
<!-- Generated by graphviz version 14.1.4 (20260321.0153)
 -->
<!-- Title: kernel/include/kernel/tty/ttybackend.h Pages: 1 -->
<svg width="320pt" height="176pt"
 viewBox="0.00 0.00 320.00 176.00" xmlns="http://www.w3.org/2000/svg" xmlns:xlink="http://www.w3.org/1999/xlink">
<g id="graph0" class="graph" transform="scale(1 1) rotate(0) translate(4 172)">
<title>kernel/include/kernel/tty/ttybackend.h</title>
<!-- Node1 -->
<g id="Node000001" class="node">
<title>Node1</title>
<g id="a_Node000001"><a xlink:title=" ">
<polygon fill="#999999" stroke="#666666" points="183.12,-168 77.88,-168 77.88,-136 183.12,-136 183.12,-168"/>
<text xml:space="preserve" text-anchor="start" x="85.88" y="-154.5" font-family="Helvetica,sans-Serif" font-size="10.00">kernel/include/kernel</text>
<text xml:space="preserve" text-anchor="middle" x="130.5" y="-142.5" font-family="Helvetica,sans-Serif" font-size="10.00">/tty/ttybackend.h</text>
</a>
</g>
</g>
<!-- Node2 -->
<g id="Node000002" class="node">
<title>Node2</title>
<g id="a_Node000002"><a xlink:href="framebufferbackend_8h.html" target="_top" xlink:title=" ">
<polygon fill="white" stroke="#666666" points="127,-100 0,-100 0,-68 127,-68 127,-100"/>
<text xml:space="preserve" text-anchor="start" x="8" y="-86.5" font-family="Helvetica,sans-Serif" font-size="10.00">kernel/include/kernel</text>
<text xml:space="preserve" text-anchor="middle" x="63.5" y="-74.5" font-family="Helvetica,sans-Serif" font-size="10.00">/tty/framebufferbackend.h</text>
</a>
</g>
</g>
<!-- Node1&#45;&gt;Node2 -->
<g id="edge1_Node000001_Node000002" class="edge">
<title>Node1&#45;&gt;Node2</title>
<g id="a_edge1_Node000001_Node000002"><a xlink:title=" ">
<path fill="none" stroke="#63b8ff" d="M106.86,-127.71C97.59,-118.59 87.23,-108.37 78.96,-100.22"/>
<polygon fill="#63b8ff" stroke="#63b8ff" points="104.3,-130.11 113.88,-134.63 109.21,-125.12 104.3,-130.11"/>
</a>
</g>
</g>
<!-- Node3 -->
<g id="Node000003" class="node">
<title>Node3</title>
<g id="a_Node000003"><a xlink:href="vgabackend_8h.html" target="_top" xlink:title=" ">
<polygon fill="white" stroke="#666666" points="250.12,-100 144.88,-100 144.88,-68 250.12,-68 250.12,-100"/>
<text xml:space="preserve" text-anchor="start" x="152.88" y="-86.5" font-family="Helvetica,sans-Serif" font-size="10.00">kernel/include/kernel</text>
<text xml:space="preserve" text-anchor="middle" x="197.5" y="-74.5" font-family="Helvetica,sans-Serif" font-size="10.00">/tty/vgabackend.h</text>
</a>
</g>
</g>
<!-- Node1&#45;&gt;Node3 -->
<g id="edge2_Node000001_Node000003" class="edge">
<title>Node1&#45;&gt;Node3</title>
<g id="a_edge2_Node000001_Node000003"><a xlink:title=" ">
<path fill="none" stroke="#63b8ff" d="M154.14,-127.71C163.41,-118.59 173.77,-108.37 182.04,-100.22"/>
<polygon fill="#63b8ff" stroke="#63b8ff" points="151.79,-125.12 147.12,-134.63 156.7,-130.11 151.79,-125.12"/>
</a>
</g>
</g>
<!-- Node4 -->
<g id="Node000004" class="node">
<title>Node4</title>
<g id="a_Node000004"><a xlink:href="framebufferbackend_8c.html" target="_top" xlink:title=" ">
<polygon fill="white" stroke="#666666" points="190.88,-32 78.12,-32 78.12,0 190.88,0 190.88,-32"/>
<text xml:space="preserve" text-anchor="start" x="86.12" y="-18.5" font-family="Helvetica,sans-Serif" font-size="10.00">kernel/src/kernel/tty</text>
<text xml:space="preserve" text-anchor="middle" x="134.5" y="-6.5" font-family="Helvetica,sans-Serif" font-size="10.00">/framebufferbackend.c</text>
</a>
</g>
</g>
<!-- Node3&#45;&gt;Node4 -->
<g id="edge3_Node000003_Node000004" class="edge">
<title>Node3&#45;&gt;Node4</title>
<g id="a_edge3_Node000003_Node000004"><a xlink:title=" ">
<path fill="none" stroke="#63b8ff" d="M175,-59.43C166.36,-50.38 156.73,-40.29 149.03,-32.22"/>
<polygon fill="#63b8ff" stroke="#63b8ff" points="172.41,-61.78 181.84,-66.6 177.47,-56.95 172.41,-61.78"/>
</a>
</g>
</g>
<!-- Node5 -->
<g id="Node000005" class="node">
<title>Node5</title>
<g id="a_Node000005"><a xlink:href="vgabackend_8c.html" target="_top" xlink:title=" ">
<polygon fill="white" stroke="#666666" points="311.62,-32 209.38,-32 209.38,0 311.62,0 311.62,-32"/>
<text xml:space="preserve" text-anchor="start" x="217.38" y="-18.5" font-family="Helvetica,sans-Serif" font-size="10.00">kernel/src/kernel/tty</text>
<text xml:space="preserve" text-anchor="middle" x="260.5" y="-6.5" font-family="Helvetica,sans-Serif" font-size="10.00">/vgabackend.c</text>
</a>
</g>
</g>
<!-- Node3&#45;&gt;Node5 -->
<g id="edge4_Node000003_Node000005" class="edge">
<title>Node3&#45;&gt;Node5</title>
<g id="a_edge4_Node000003_Node000005"><a xlink:title=" ">
<path fill="none" stroke="#63b8ff" d="M220,-59.43C228.64,-50.38 238.27,-40.29 245.97,-32.22"/>
<polygon fill="#63b8ff" stroke="#63b8ff" points="217.53,-56.95 213.16,-66.6 222.59,-61.78 217.53,-56.95"/>
</a>
</g>
</g>
</g>
</svg>
